<svg width="308" height="422" viewBox="0 0 308 422" fill="none" xmlns="http://www.w3.org/2000/svg">
<path d="M308 161.304C308 288.882 174.916 421.108 104.5 421.108C34.0837 421.108 -95 355.108 115.5 226.108C115.5 98.5304 -44.4163 0.608154 26 0.608154C96.4163 0.608154 308 33.7263 308 161.304Z" fill="#2F278B" fill-opacity="0.29"/>
<path d="M164.043 231.294C164.375 230.525 164.811 229.87 165.323 229.372C165.835 228.873 166.412 228.542 167.015 228.401C167.619 228.26 168.235 228.312 168.824 228.553C169.413 228.794 169.961 229.219 170.433 229.801C170.582 229.986 170.722 230.186 170.852 230.4L187.887 226.681L188.835 207.47C188.907 205.996 189.367 204.626 190.114 203.661C190.86 202.696 191.831 202.215 192.814 202.323C193.796 202.432 194.71 203.122 195.354 204.241C195.997 205.36 196.318 206.817 196.245 208.291C196.244 208.325 196.242 208.359 196.24 208.393L194.579 235.35L194.571 235.41C194.355 236.446 193.922 237.35 193.336 237.988C192.75 238.626 192.043 238.964 191.319 238.951L171.283 238.432C171.205 238.61 171.121 238.782 171.031 238.947C170.644 239.654 170.161 240.231 169.614 240.639C169.068 241.048 168.47 241.278 167.86 241.315C167.25 241.353 166.641 241.196 166.074 240.857C165.507 240.517 164.994 240.001 164.57 239.343C164.483 239.211 164.402 239.074 164.324 238.933C163.747 237.866 163.409 236.554 163.358 235.182C163.308 233.81 163.548 232.45 164.043 231.294Z" fill="#FFB7B7"/>
<path d="M198.387 395.092L193.528 395.091L191.217 366.986L198.387 366.987L198.387 395.092Z" fill="#FFB7B7"/>
<path d="M199.626 402.155L183.96 402.154V401.857C183.96 399.431 184.603 397.105 185.746 395.39C186.89 393.676 188.44 392.712 190.057 392.712H190.058L199.626 392.713L199.626 402.155Z" fill="#2F2E41"/>
<path d="M232.336 388.485L227.738 390.837L219.5 365.357L226.287 361.885L232.336 388.485Z" fill="#FFB7B7"/>
<path d="M235.029 394.57L220.202 402.155L220.138 401.873C219.616 399.578 219.724 397.065 220.437 394.889C221.15 392.712 222.41 391.049 223.941 390.266L223.941 390.266L232.997 385.634L235.029 394.57Z" fill="#2F2E41"/>
<path d="M203.737 149.354C203.737 149.354 198.901 146.958 195.792 156.539C192.684 166.119 187.848 176.658 187.848 176.658L190.611 177.616C190.611 177.616 191.302 170.91 193.029 169.952L192.338 178.574C192.338 178.574 213.063 188.634 222.389 177.616L222.043 174.263C222.043 174.263 223.425 174.742 223.425 177.616L224.461 176.179C224.461 176.179 223.425 173.305 220.316 169.473C218.276 166.957 217.575 162.172 217.334 159.18C217.143 156.647 216.418 154.271 215.266 152.397C213.2 149.077 209.436 145.548 203.737 149.354Z" fill="#2F2E41"/>
<path d="M205.519 182.826C210.397 182.826 214.351 176.896 214.351 169.58C214.351 162.265 210.397 156.334 205.519 156.334C200.641 156.334 196.687 162.265 196.687 169.58C196.687 176.896 200.641 182.826 205.519 182.826Z" fill="#FFB7B7"/>
<path d="M193.743 193.734L192.137 192.931C192.137 192.931 188.925 194.938 188.925 198.55C188.925 202.163 188.39 216.613 188.39 216.613L195.616 217.817L193.743 193.734Z" fill="#CBCBCB"/>
<path d="M222.485 272.687C221.819 271.568 221.443 270.127 221.425 268.627C221.408 267.127 221.75 265.667 222.389 264.514L217.881 207.892C217.837 206.557 218.148 205.25 218.746 204.258C219.343 203.267 220.179 202.671 221.069 202.602C221.959 202.533 222.831 202.997 223.494 203.891C224.156 204.786 224.555 206.038 224.603 207.373C224.603 207.391 224.604 207.41 224.604 207.428L228.637 264.11C228.784 264.33 228.918 264.567 229.04 264.818C229.364 265.489 229.596 266.248 229.724 267.054C229.851 267.859 229.872 268.695 229.785 269.512C229.697 270.329 229.503 271.113 229.213 271.818C228.924 272.523 228.545 273.135 228.097 273.621C228.051 273.671 228.004 273.72 227.956 273.767C227.438 274.281 226.851 274.617 226.236 274.75C225.622 274.883 224.995 274.811 224.401 274.538C223.66 274.201 222.996 273.56 222.485 272.687Z" fill="#FFB7B7"/>
<path d="M218.356 216.613L225.582 215.409C225.582 215.409 225.047 200.959 225.047 197.346C225.047 193.733 221.835 191.727 221.835 191.727L220.229 192.529L218.356 216.613Z" fill="#CBCBCB"/>
<path d="M194.813 236.662C194.813 236.662 188.658 253.541 188.658 274.013C188.658 294.484 188.122 388.41 188.122 388.41C188.122 388.41 196.152 394.03 200.969 387.206L205.251 283.245L222.113 385.199C222.113 385.199 230.142 387.607 233.889 383.593L226.663 312.547C226.663 312.547 223.719 245.915 215.689 241.098C207.66 236.281 194.813 236.662 194.813 236.662Z" fill="#2F2E41"/>
<path d="M195.975 169.664C199.102 166.271 201.633 162.362 203.307 157.712C203.307 157.712 209.045 167.274 212.552 167.752C216.058 168.23 212.87 156.278 212.87 156.278L206.495 153.887L200.438 154.844L195.656 159.624L195.975 169.664Z" fill="#2F2E41"/>
<path d="M214.351 189.318C214.351 189.318 214.606 189.113 199.364 189.946L192.985 192.58L192.137 192.931C192.137 192.931 192.94 217.014 195.081 221.43C197.222 225.845 196.687 228.253 196.152 228.655C195.616 229.056 194.278 228.253 195.081 230.26C195.884 232.267 196.954 231.063 195.884 232.267C194.813 233.472 194.278 237.887 194.278 237.887L217.831 242.704C217.831 242.704 218.634 227.049 220.775 219.021C222.916 210.993 223.451 207.782 223.451 207.782L221.845 191.727L214.351 189.318Z" fill="#CBCBCB"/>
<path d="M169.573 120.851H168.219V65.206C168.219 56.6644 165.956 48.4727 161.929 42.4329C157.902 36.3931 152.44 33 146.745 33H68.1366C62.4412 33 56.9792 36.3931 52.9519 42.4328C48.9247 48.4726 46.6622 56.6643 46.6622 65.2059V370.48C46.6622 379.022 48.9247 387.214 52.9519 393.253C56.9791 399.293 62.4411 402.686 68.1365 402.686H146.744C149.564 402.686 152.357 401.853 154.962 400.235C157.568 398.616 159.935 396.244 161.929 393.253C163.923 390.263 165.505 386.713 166.584 382.805C167.663 378.898 168.219 374.71 168.219 370.48V160.461H169.573L169.573 120.851Z" fill="#3F3D56"/>
<path d="M163.648 65.4323V370.258C163.65 373.413 163.238 376.539 162.434 379.455C161.631 382.372 160.452 385.023 158.965 387.256C157.479 389.489 155.714 391.262 153.77 392.472C151.827 393.682 149.744 394.307 147.64 394.31H68.6257C64.3753 394.314 60.2979 391.786 57.2903 387.282C54.2827 382.778 52.5914 376.666 52.5884 370.292V65.4323C52.5869 62.2759 53 59.1501 53.804 56.2332C54.608 53.3163 55.7872 50.6654 57.2743 48.432C58.7614 46.1986 60.5273 44.4263 62.4711 43.2164C64.4149 42.0065 66.4985 41.3826 68.6031 41.3804H78.2072C77.7354 43.1153 77.5553 44.9977 77.6828 46.8617C77.8103 48.7257 78.2416 50.514 78.9386 52.0691C79.6355 53.6242 80.5768 54.8984 81.6795 55.7793C82.7822 56.6603 84.0125 57.1209 85.2618 57.1208H130.296C131.546 57.1209 132.776 56.6603 133.879 55.7793C134.981 54.8984 135.923 53.6242 136.62 52.0691C137.317 50.514 137.748 48.7257 137.876 46.8617C138.003 44.9977 137.823 43.1153 137.351 41.3804H147.611C151.861 41.3746 155.938 43.9009 158.945 48.4034C161.953 52.9059 163.645 59.0159 163.648 65.3891V65.4323L163.648 65.4323Z" fill="white"/>
<path d="M163.648 110.53V100.147H153.17V42.8651C151.391 41.8794 149.508 41.3766 147.611 41.3803H146.247V100.147H109.901V57.1208H102.978V100.147H72.5164V41.3804H68.6257C67.608 41.378 66.5926 41.5223 65.5933 41.8113V100.147H52.5884V110.53H65.5933V134.546L52.5885 145.806V157.798L65.5933 146.538V217.993H52.5884V228.376H65.5933V331.685H52.5884V342.068H65.5933V393.879C66.5926 394.168 67.608 394.312 68.6257 394.31H72.5164V342.068H102.978V394.31H109.901V342.068H146.247V394.31H147.611C149.508 394.313 151.391 393.811 153.17 392.825V342.068H163.648V331.685H153.17V286.52H163.555V276.137H153.17V228.376H163.648V217.993H153.17V154.657H163.648V144.275H153.17V110.53L163.648 110.53ZM93.3309 110.53L93.3307 110.53L72.5166 128.555L72.5164 128.555V110.53H93.3309ZM72.5164 140.542L72.5166 140.542L102.978 114.165V217.993H72.5164V140.542ZM72.5164 331.685V228.376H102.978V331.685H72.5164ZM146.247 331.685H109.901V286.52H146.247V331.685ZM146.247 276.137H109.901V228.376H146.247V276.137ZM146.247 217.993H109.901V154.657H146.247V217.993ZM146.247 144.275H109.901V110.53H146.247V144.275Z" fill="#E5E5E5"/>
<path d="M169.439 144.467C169.439 177.439 129.632 250.891 129.632 250.891C129.632 250.891 89.8241 177.439 89.8241 144.467C89.8241 128.633 94.0181 113.447 101.484 102.251C108.949 91.0551 119.074 84.7651 129.632 84.7651C140.189 84.7651 150.315 91.0551 157.78 102.251C165.245 113.447 169.439 128.633 169.439 144.467Z" fill="#6C63FF"/>
<path d="M153.171 141.871C153.171 148.853 151.79 155.678 149.204 161.484C146.617 167.289 142.941 171.814 138.64 174.485C134.339 177.157 129.606 177.856 125.04 176.494C120.474 175.132 116.28 171.77 112.988 166.833C109.696 161.896 107.454 155.606 106.546 148.758C105.638 141.91 106.104 134.812 107.886 128.362C109.667 121.911 112.684 116.398 116.555 112.519C120.426 108.64 124.977 106.569 129.632 106.569C132.722 106.567 135.782 107.478 138.637 109.249C141.492 111.02 144.086 113.618 146.272 116.893C148.458 120.168 150.192 124.056 151.376 128.337C152.559 132.617 153.169 137.205 153.171 141.838V141.871Z" fill="white"/>
<path d="M129.55 155.806C134.393 155.806 138.32 149.918 138.32 142.655C138.32 135.391 134.393 129.503 129.55 129.503C124.707 129.503 120.781 135.391 120.781 142.655C120.781 149.918 124.707 155.806 129.55 155.806Z" fill="#6C63FF"/>
<path d="M142.277 172.692C138.497 176.298 134.11 178.212 129.63 178.211C125.15 178.21 120.763 176.294 116.984 172.687C117.77 168.566 119.43 164.942 121.712 162.361C123.994 159.781 126.774 158.385 129.632 158.386C132.49 158.387 135.27 159.783 137.551 162.364C139.833 164.946 141.492 168.571 142.277 172.692Z" fill="#6C63FF"/>
<path d="M129.632 293.98C135.558 293.98 140.363 286.775 140.363 277.886C140.363 268.998 135.558 261.793 129.632 261.793C123.705 261.793 118.901 268.998 118.901 277.886C118.901 286.775 123.705 293.98 129.632 293.98Z" fill="#6C63FF"/>
<path d="M295.654 403H17.3462C17.2543 403 17.1663 402.945 17.1014 402.848C17.0365 402.751 17 402.618 17 402.481C17 402.343 17.0365 402.211 17.1014 402.114C17.1663 402.016 17.2543 401.962 17.3462 401.962H295.654C295.746 401.962 295.834 402.016 295.899 402.114C295.964 402.211 296 402.343 296 402.481C296 402.618 295.964 402.751 295.899 402.848C295.834 402.945 295.746 403 295.654 403Z" fill="#CBCBCB"/>
</svg>
