<svg width="350" height="422" viewBox="0 0 350 422" fill="none" xmlns="http://www.w3.org/2000/svg">
<path d="M326 161.304C326 288.882 192.916 421.108 122.5 421.108C52.0837 421.108 -77 355.108 133.5 226.108C133.5 98.5304 -26.4163 0.608154 44 0.608154C114.416 0.608154 326 33.7263 326 161.304Z" fill="#2F278B" fill-opacity="0.29"/>
<g clip-path="url(#clip0_31_343)">
<path d="M255.384 123.62C255.384 158.926 222.276 263.048 203.294 319.845C202.007 323.699 200.125 326.909 197.843 329.144C195.562 331.379 192.964 332.558 190.318 332.558C187.671 332.558 185.073 331.379 182.792 329.144C180.51 326.909 178.629 323.699 177.341 319.845C158.359 263.048 125.252 158.926 125.252 123.62C125.252 74.1243 154.383 34 190.318 34C226.253 34 255.384 74.1243 255.384 123.62Z" fill="#6C63FF"/>
<path d="M190.623 181.67C210.193 181.67 226.058 155.224 226.058 122.602C226.058 89.9795 210.193 63.5339 190.623 63.5339C171.053 63.5339 155.188 89.9795 155.188 122.602C155.188 155.224 171.053 181.67 190.623 181.67Z" fill="white"/>
<path d="M42.7552 176.047C54.4769 176.047 63.9793 160.207 63.9793 140.668C63.9793 121.129 54.4769 105.289 42.7552 105.289C31.0334 105.289 21.5311 121.129 21.5311 140.668C21.5311 160.207 31.0334 176.047 42.7552 176.047Z" fill="#FF6584"/>
<path d="M190.318 402C218.692 402 241.693 399.04 241.693 395.389C241.693 391.738 218.692 388.778 190.318 388.778C161.943 388.778 138.942 391.738 138.942 395.389C138.942 399.04 161.943 402 190.318 402Z" fill="#6C63FF"/>
<path opacity="0.4" d="M38.4337 172.13C39.5139 161.034 34.9934 150.579 28.3369 148.779C21.6804 146.978 15.4085 154.514 14.3283 165.61C13.2481 176.706 17.7686 187.16 24.4251 188.961C31.0817 190.762 37.3535 183.226 38.4337 172.13Z" fill="#6C63FF"/>
<path d="M312.054 273.866C215.897 213.78 98.6194 272.359 30.908 392.185C30.5231 392.857 30.1382 393.54 29.7655 394.222H28.733C29.0874 393.54 29.4539 392.857 29.8144 392.185C98.931 263.244 214.651 211.855 312.054 273.866Z" fill="#3F3D56"/>
<path d="M338.331 293.797C329.832 286.241 321.055 279.584 312.054 273.866C321.079 279.49 329.859 286.149 338.331 293.797Z" fill="#3F3D56"/>
<path opacity="0.4" d="M285.704 233.848C293.1 233.848 299.096 223.853 299.096 211.524C299.096 199.195 293.1 189.201 285.704 189.201C278.308 189.201 272.312 199.195 272.312 211.524C272.312 223.853 278.308 233.848 285.704 233.848Z" fill="#6C63FF"/>
<path d="M287.195 383.235C288.23 389.612 291.775 393.561 291.775 393.561C291.775 393.561 293.642 387.171 292.607 380.794C291.572 374.417 288.027 370.468 288.027 370.468C288.027 370.468 286.16 376.857 287.195 383.235Z" fill="#3F3D56"/>
<path d="M288.716 381.864C291.556 386.472 291.903 393.556 291.903 393.556C291.903 393.556 287.645 393.168 284.806 388.56C281.966 383.952 281.619 376.868 281.619 376.868C281.619 376.868 285.876 377.256 288.716 381.864Z" fill="#6C63FF"/>
<path d="M2.05278 294.566V304.404L1.75952 304.933V294.464C1.85727 294.495 1.95505 294.535 2.05278 294.566Z" fill="#3F3D56"/>
<path d="M20.8578 392.181C20.7722 392.415 20.6806 392.649 20.5889 392.883H1.75952V295.055L2.05278 294.566L4.55156 299.301V292.376H12.4939V314.354L20.5156 329.538L20.5889 329.681C20.6867 330.19 20.7783 330.699 20.87 331.208C20.8706 331.216 20.8728 331.223 20.8761 331.229C22.0791 337.646 23.0663 344.171 23.8331 350.772C25.5804 366.344 25.3177 380.622 20.8578 392.181Z" fill="#CCCCCC"/>
<path d="M8.37094 348.641H3.31567V355.663H8.37094V348.641Z" fill="#3F3D56"/>
<path d="M8.37094 361.281H3.31567V368.304H8.37094V361.281Z" fill="#3F3D56"/>
<path d="M164.093 335.298L161.566 328.277L185.157 294.569C202.598 280.576 223.621 284.613 245.82 294.569V304.4L223.914 343.726L198.637 352.152L164.093 335.298Z" fill="#3F3D56"/>
<path d="M256.263 314.35C260.452 306.582 261.034 299.196 256.263 292.376H248.32V299.305L245.82 294.569L225.599 328.277L222.229 333.894L218.016 361.984L225.599 392.881H264.356V329.681L256.263 314.35Z" fill="#CCCCCC"/>
<path d="M161.566 328.276H225.599V392.882H161.566C153.819 378.91 157.843 353.446 161.566 328.276Z" fill="#F2F2F2"/>
<path d="M216.752 348.641H203.272V368.304H216.752V348.641Z" fill="#3F3D56"/>
<path d="M197.795 347.939H186V392.882H197.795V347.939Z" fill="#CCCCCC"/>
<path d="M172.519 354.961V347.939H167.464V354.961H172.097H172.519Z" fill="#3F3D56"/>
<path d="M172.097 360.579H167.464V367.602H172.519V360.579H172.097Z" fill="#3F3D56"/>
<path d="M180.944 347.939H175.889V354.961H180.944V347.939Z" fill="#3F3D56"/>
<path d="M180.944 360.579H175.889V367.601H180.944V360.579Z" fill="#3F3D56"/>
<path d="M243.714 355.664V348.641H238.658V355.664H243.292H243.714Z" fill="#3F3D56"/>
<path d="M243.292 361.282H238.658V368.304H243.714V361.282H243.292Z" fill="#3F3D56"/>
<path d="M252.139 348.641H247.084V355.663H252.139V348.641Z" fill="#3F3D56"/>
<path d="M252.139 361.281H247.084V368.304H252.139V361.281Z" fill="#3F3D56"/>
<path d="M50.077 217.324L45.8645 211.706L69.4556 176.594H129.276V207.492L90.5193 251.031L50.077 217.324Z" fill="#3F3D56"/>
<path d="M140.183 196.29V177.295H132.24V181.947L129.276 176.593L109.897 211.705L102.315 220.133L90.5571 363.324L108.289 392.881H149.497C155.811 339.937 160.818 285.547 149.497 213.11L140.183 196.29Z" fill="#CCCCCC"/>
<path d="M45.8641 211.706H109.897V392.882H45.8641C38.8571 322.496 35.4349 257.224 45.8641 211.706Z" fill="#F2F2F2"/>
<path d="M82.5148 348.641H70.7192V392.882H82.5148V348.641Z" fill="#CCCCCC"/>
<path d="M58.081 361.282V354.26H53.026V361.282H57.66H58.081Z" fill="#3F3D56"/>
<path d="M57.66 366.899H53.026V373.922H58.081V366.899H57.66Z" fill="#3F3D56"/>
<path d="M66.5064 354.259H61.4512V361.281H66.5064V354.259Z" fill="#3F3D56"/>
<path d="M92.2043 366.899H87.5703V373.922H92.6252V366.899H92.2043Z" fill="#3F3D56"/>
<path d="M101.051 354.259H95.9955V361.281H101.051V354.259Z" fill="#3F3D56"/>
<path d="M101.051 366.899H95.9955V373.921H101.051V366.899Z" fill="#3F3D56"/>
<path d="M128.012 220.835V213.813H122.957V220.835H127.591H128.012Z" fill="#3F3D56"/>
<path d="M127.591 226.453H122.957V233.475H128.012V226.453H127.591Z" fill="#3F3D56"/>
<path d="M136.438 213.812H131.382V220.835H136.438V213.812Z" fill="#3F3D56"/>
<path d="M136.438 226.452H131.382V233.475H136.438V226.452Z" fill="#3F3D56"/>
<path d="M128.012 260.161V253.138H122.957V260.161H127.591H128.012Z" fill="#3F3D56"/>
<path d="M127.591 265.778H122.957V272.8H128.012V265.778H127.591Z" fill="#3F3D56"/>
<path d="M136.438 253.137H131.382V260.16H136.438V253.137Z" fill="#3F3D56"/>
<path d="M136.438 265.778H131.382V272.8H136.438V265.778Z" fill="#3F3D56"/>
<path d="M128.012 299.485V292.462H122.957V299.485H127.591H128.012Z" fill="#3F3D56"/>
<path d="M127.591 305.103H122.957V312.125H128.012V305.103H127.591Z" fill="#3F3D56"/>
<path d="M136.438 292.462H131.382V299.485H136.438V292.462Z" fill="#3F3D56"/>
<path d="M136.438 305.103H131.382V312.125H136.438V305.103Z" fill="#3F3D56"/>
<path d="M128.012 338.81V331.787H122.957V338.81H127.591H128.012Z" fill="#3F3D56"/>
<path d="M127.591 344.428H122.957V351.45H128.012V344.428H127.591Z" fill="#3F3D56"/>
<path d="M136.438 331.787H131.382V338.81H136.438V331.787Z" fill="#3F3D56"/>
<path d="M136.438 344.428H131.382V351.45H136.438V344.428Z" fill="#3F3D56"/>
<path d="M53.0258 220.835H101.893V237.688C86.2297 230.482 69.8957 230.999 53.0258 237.688V220.835Z" fill="#3F3D56"/>
<path d="M53.0258 254.542C68.2778 262.032 84.567 262.032 101.893 254.542V271.395H53.0258V254.542Z" fill="#3F3D56"/>
<path d="M53.0258 288.249H101.893V305.103C85.2394 296.238 68.933 295.82 53.0258 305.103V288.249Z" fill="#3F3D56"/>
<path d="M53.0258 321.956C68.963 332.195 85.2668 331.769 101.893 321.956V338.81H53.0258V321.956Z" fill="#3F3D56"/>
<path d="M315.665 292.676H350V320.255L346.933 321.854L336.73 327.162L320.723 320.981L304.735 314.805L296.291 311.545L292.076 308.945C295.583 300.924 301.961 294.616 315.665 292.676Z" fill="#3F3D56"/>
<path d="M350 308.945V392.883H292.076C292.058 392.831 292.045 392.784 292.027 392.732V392.728C292.013 392.669 291.997 392.612 291.978 392.558C291.074 389.524 290.263 386.498 289.547 383.48C283.468 357.94 284.127 333.074 292.076 308.945H350Z" fill="#F2F2F2"/>
<path d="M328.727 348.641H316.931V392.882H328.727V348.641Z" fill="#CCCCCC"/>
<path d="M304.293 361.282V354.26H299.238V361.282H303.872H304.293Z" fill="#3F3D56"/>
<path d="M303.872 366.899H299.238V373.922H304.293V366.899H303.872Z" fill="#3F3D56"/>
<path d="M312.718 354.259H307.663V361.281H312.718V354.259Z" fill="#3F3D56"/>
<path d="M312.718 366.899H307.663V373.921H312.718V366.899Z" fill="#3F3D56"/>
<path d="M338.837 361.282V354.26H333.782V361.282H338.416H338.837Z" fill="#3F3D56"/>
<path d="M338.416 366.899H333.782V373.922H338.837V366.899H338.416Z" fill="#3F3D56"/>
<path d="M347.263 354.259H342.208V361.281H347.263V354.259Z" fill="#3F3D56"/>
<path d="M347.263 366.899H342.208V373.921H347.263V366.899Z" fill="#3F3D56"/>
<path d="M304.736 260.087H311.998C319.16 260.087 326.029 264.83 331.093 273.272C336.158 281.714 339.003 293.164 339.003 305.103H304.736V260.087Z" fill="#3F3D56"/>
<path d="M84.795 137.878H92.0567C99.2188 137.878 106.088 142.621 111.152 151.063C116.216 159.505 119.062 170.954 119.062 182.893H84.795V137.878Z" fill="#3F3D56"/>
<path d="M200.875 250.921H208.137C215.299 250.921 222.168 255.664 227.232 264.106C232.297 272.548 235.142 283.998 235.142 295.937H200.875V250.921Z" fill="#3F3D56"/>
<path d="M339.003 321.956H304.736V338.81H339.003V321.956Z" fill="#3F3D56"/>
<path d="M350 392.185H1.75964V394.222H350V392.185Z" fill="#3F3D56"/>
<path d="M33.8776 311.726H32.6557V392.18H33.8776V311.726Z" fill="#3F3D56"/>
<path d="M45.1543 321.979C45.2321 350.112 33.3582 373.01 33.3582 373.01C33.3582 373.01 18.1522 349.808 21.2804 322.162C24.4266 294.359 34.2319 271.25 33.0765 271.132C33.0765 271.132 45.0765 293.846 45.1543 321.979Z" fill="#6C63FF"/>
<path d="M156.067 311.726H154.845V392.18H156.067V311.726Z" fill="#3F3D56"/>
<path d="M167.344 321.979C168.445 350.052 155.548 373.01 155.548 373.01C155.548 373.01 143.548 350.295 143.47 322.162C143.392 294.03 155.266 271.132 155.266 271.132C154.109 278.843 166.453 299.264 167.344 321.979Z" fill="#6C63FF"/>
<path d="M76.6819 180.945L129.757 176.617L152.022 207.596L148.086 213.52L112.829 212.197L76.6819 180.945Z" fill="#3F3D56"/>
<path d="M23.7231 324.711L20.8639 329.019L20.5156 329.538L19.7886 330.638L1.75953 329.966V294.464C1.17302 294.25 0.58651 294.047 0 293.853L1.46017 293.731L1.75953 294.148L4.55157 298.028L12.4939 309.088L21.3649 321.432L23.7231 324.711Z" fill="#3F3D56"/>
<path d="M192.762 298.063L245.838 293.734L268.102 324.714L264.166 330.638L228.909 329.315L192.762 298.063Z" fill="#3F3D56"/>
</g>
<defs>
<clipPath id="clip0_31_343">
<rect width="350" height="368" fill="white" transform="translate(0 34)"/>
</clipPath>
</defs>
</svg>
