<svg width="308" height="422" viewBox="0 0 308 422" fill="none" xmlns="http://www.w3.org/2000/svg">
<path d="M308 161.304C308 288.882 174.916 421.108 104.5 421.108C34.0837 421.108 -95 355.108 115.5 226.108C115.5 98.5304 -44.4163 0.608154 26 0.608154C96.4163 0.608154 308 33.7263 308 161.304Z" fill="#2F278B" fill-opacity="0.29"/>
<g clip-path="url(#clip0_31_342)">
<path d="M212.333 358.286H106.205C102.337 358.286 98.5078 357.601 94.9348 356.269C91.3618 354.937 88.1153 352.985 85.3806 350.525C82.646 348.064 80.4767 345.143 78.9967 341.928C77.5168 338.712 76.755 335.266 76.7551 331.786V84.4998C76.7639 77.4741 79.8695 70.7384 85.3904 65.7704C90.9114 60.8024 98.3969 58.008 106.205 58H212.333C220.141 58.0079 227.626 60.8024 233.147 65.7704C238.668 70.7383 241.774 77.4741 241.783 84.4998V129.164H243.611V162.072H241.783V331.786C241.783 338.815 238.68 345.555 233.157 350.525C227.634 355.494 220.144 358.286 212.333 358.286V358.286ZM106.205 58.823C98.6393 58.8306 91.3863 61.5383 86.0368 66.352C80.6873 71.1657 77.6782 77.6923 77.6696 84.4998V331.786C77.6696 335.158 78.4076 338.497 79.8416 341.613C81.2756 344.728 83.3775 347.558 86.0272 349.943C88.6769 352.327 91.8226 354.218 95.2846 355.509C98.7467 356.799 102.457 357.463 106.205 357.463H212.333C219.901 357.463 227.159 354.758 232.51 349.943C237.862 345.128 240.868 338.597 240.868 331.787V161.249H242.697V129.987H240.868V84.4998C240.859 77.6923 237.85 71.1657 232.501 66.352C227.151 61.5383 219.898 58.8306 212.333 58.823H106.205Z" fill="#3F3D56"/>
<path d="M213.502 351.5H106.865C101.003 351.494 95.3835 349.396 91.2387 345.666C87.0938 341.936 84.7622 336.879 84.7554 331.605V84.6819C84.7622 79.4073 87.0938 74.3505 91.2386 70.6208C95.3835 66.8911 101.003 64.793 106.865 64.7869H120.481L120.225 65.3535C119.617 66.6967 119.386 68.1535 119.551 69.596C119.716 71.0384 120.273 72.4223 121.172 73.6258C122.071 74.8293 123.285 75.8156 124.707 76.4979C126.129 77.1802 127.715 77.5376 129.327 77.5387H190.126C191.738 77.5375 193.324 77.1801 194.746 76.4978C196.168 75.8154 197.382 74.8292 198.281 73.6257C199.18 72.4222 199.736 71.0384 199.901 69.5959C200.066 68.1535 199.835 66.6966 199.228 65.3535L198.972 64.7869H213.502C219.364 64.7931 224.984 66.8911 229.128 70.6208C233.273 74.3505 235.605 79.4073 235.612 84.6819V331.605C235.605 336.879 233.273 341.936 229.128 345.666C224.984 349.396 219.364 351.494 213.502 351.5V351.5ZM106.865 65.6099C101.246 65.6157 95.8584 67.627 91.885 71.2024C87.9116 74.7778 85.6765 79.6255 85.67 84.6819V331.605C85.6765 336.661 87.9117 341.509 91.8851 345.084C95.8585 348.66 101.246 350.671 106.865 350.677H213.502C219.121 350.671 224.509 348.66 228.482 345.084C232.455 341.509 234.691 336.661 234.697 331.605V84.6819C234.691 79.6255 232.455 74.7778 228.482 71.2024C224.509 67.627 219.122 65.6158 213.502 65.6099H200.309C200.851 67.064 201.002 68.6133 200.748 70.13C200.494 71.6467 199.843 73.0874 198.848 74.333C197.853 75.5787 196.544 76.5936 195.027 77.2941C193.511 77.9945 191.831 78.3605 190.126 78.3616H129.326C127.622 78.3605 125.942 77.9946 124.425 77.2941C122.909 76.5937 121.599 75.5788 120.605 74.3331C119.61 73.0875 118.959 71.6468 118.705 70.1301C118.451 68.6134 118.601 67.064 119.144 65.6099H106.865Z" fill="#CCCCCC"/>
<path d="M247.341 218.791H66.6591C64.0982 218.788 61.643 217.872 59.8322 216.243C58.0214 214.613 57.0029 212.404 57 210.099V157.95C57.0029 155.645 58.0214 153.436 59.8322 151.807C61.643 150.177 64.0982 149.261 66.6591 149.258H247.341C249.902 149.261 252.357 150.177 254.168 151.807C255.979 153.436 256.997 155.645 257 157.95V210.099C256.997 212.404 255.979 214.613 254.168 216.243C252.357 217.872 249.902 218.788 247.341 218.791V218.791Z" fill="white"/>
<path d="M247.341 218.791H66.6591C64.0982 218.788 61.643 217.872 59.8322 216.243C58.0214 214.613 57.0029 212.404 57 210.099V157.95C57.0029 155.645 58.0214 153.436 59.8322 151.807C61.643 150.177 64.0982 149.261 66.6591 149.258H247.341C249.902 149.261 252.357 150.177 254.168 151.807C255.979 153.436 256.997 155.645 257 157.95V210.099C256.997 212.404 255.979 214.613 254.168 216.243C252.357 217.872 249.902 218.788 247.341 218.791V218.791ZM66.6591 150.281C64.3995 150.283 62.2332 151.092 60.6354 152.53C59.0376 153.967 58.1389 155.917 58.1363 157.95V210.099C58.1389 212.133 59.0376 214.082 60.6354 215.52C62.2332 216.958 64.3995 217.766 66.6591 217.769H247.341C249.6 217.766 251.767 216.958 253.365 215.52C254.962 214.082 255.861 212.133 255.864 210.099V157.95C255.861 155.917 254.962 153.967 253.365 152.53C251.767 151.092 249.6 150.283 247.341 150.281H66.6591Z" fill="#3F3D56"/>
<path d="M180.694 181.213H117.626C116.42 181.213 115.264 180.782 114.411 180.015C113.559 179.248 113.08 178.207 113.08 177.123C113.08 176.038 113.559 174.997 114.411 174.23C115.264 173.463 116.42 173.032 117.626 173.032H180.694C181.899 173.032 183.055 173.463 183.908 174.23C184.76 174.997 185.239 176.038 185.239 177.123C185.239 178.207 184.76 179.248 183.908 180.015C183.055 180.782 181.899 181.213 180.694 181.213V181.213Z" fill="#6C63FF"/>
<path d="M239.216 195.017H117.626C116.42 195.017 115.264 194.586 114.411 193.819C113.559 193.052 113.08 192.012 113.08 190.927C113.08 189.842 113.559 188.802 114.411 188.035C115.264 187.268 116.42 186.837 117.626 186.837H239.216C240.422 186.837 241.578 187.268 242.431 188.035C243.283 188.802 243.762 189.842 243.762 190.927C243.762 192.012 243.283 193.052 242.431 193.819C241.578 194.586 240.422 195.017 239.216 195.017Z" fill="#6C63FF"/>
<path d="M87.2837 199.363C96.6976 199.363 104.329 192.496 104.329 184.025C104.329 175.554 96.6976 168.687 87.2837 168.687C77.8697 168.687 70.2382 175.554 70.2382 184.025C70.2382 192.496 77.8697 199.363 87.2837 199.363Z" fill="#6C63FF"/>
<path d="M239.21 211.633H223.301C222.095 211.633 220.939 211.202 220.086 210.435C219.234 209.668 218.755 208.628 218.755 207.543C218.755 206.458 219.234 205.418 220.086 204.651C220.939 203.884 222.095 203.453 223.301 203.453H239.21C239.807 203.453 240.398 203.559 240.949 203.764C241.501 203.97 242.002 204.271 242.424 204.651C242.846 205.031 243.181 205.482 243.409 205.978C243.638 206.474 243.755 207.006 243.755 207.543C243.755 208.08 243.638 208.612 243.409 209.108C243.181 209.605 242.846 210.055 242.424 210.435C242.002 210.815 241.501 211.116 240.949 211.322C240.398 211.527 239.807 211.633 239.21 211.633V211.633Z" fill="white"/>
<path d="M239.21 211.633H223.301C222.095 211.633 220.939 211.202 220.086 210.435C219.234 209.668 218.755 208.628 218.755 207.543C218.755 206.458 219.234 205.418 220.086 204.651C220.939 203.884 222.095 203.453 223.301 203.453H239.21C239.807 203.453 240.398 203.559 240.949 203.764C241.501 203.97 242.002 204.271 242.424 204.651C242.846 205.031 243.181 205.482 243.409 205.978C243.638 206.474 243.755 207.006 243.755 207.543C243.755 208.08 243.638 208.612 243.409 209.108C243.181 209.605 242.846 210.055 242.424 210.435C242.002 210.815 241.501 211.116 240.949 211.322C240.398 211.527 239.807 211.633 239.21 211.633V211.633Z" fill="#CCCCCC"/>
<path d="M211.842 135.888H111.304C109.879 135.887 108.512 135.377 107.505 134.47C106.497 133.563 105.93 132.334 105.929 131.052V102.033C105.93 100.751 106.497 99.5219 107.505 98.6152C108.512 97.7085 109.879 97.1985 111.304 97.1971H211.842C213.267 97.1985 214.633 97.7085 215.641 98.6152C216.648 99.5219 217.215 100.751 217.217 102.033V131.052C217.215 132.334 216.648 133.563 215.641 134.47C214.633 135.376 213.267 135.887 211.842 135.888V135.888ZM111.304 97.7661C110.046 97.7674 108.841 98.2174 107.952 99.0174C107.063 99.8174 106.563 100.902 106.561 102.033V131.052C106.563 132.183 107.063 133.268 107.952 134.068C108.841 134.868 110.046 135.318 111.304 135.319H211.842C213.099 135.318 214.305 134.868 215.194 134.068C216.083 133.268 216.583 132.183 216.584 131.052V102.033C216.583 100.902 216.083 99.8174 215.194 99.0174C214.305 98.2174 213.099 97.7674 211.842 97.7661H111.304Z" fill="#CCCCCC"/>
<path d="M174.757 114.978H139.663C138.993 114.977 138.351 114.737 137.877 114.31C137.403 113.883 137.137 113.305 137.137 112.702C137.137 112.099 137.403 111.52 137.877 111.094C138.351 110.667 138.993 110.427 139.663 110.426H174.757C175.427 110.427 176.07 110.667 176.543 111.094C177.017 111.52 177.283 112.099 177.283 112.702C177.283 113.305 177.017 113.883 176.543 114.31C176.07 114.737 175.427 114.977 174.757 114.978V114.978Z" fill="#E6E6E6"/>
<path d="M207.321 122.659H139.663C138.993 122.658 138.351 122.418 137.877 121.991C137.403 121.565 137.137 120.986 137.137 120.383C137.137 119.78 137.403 119.202 137.877 118.775C138.351 118.348 138.993 118.108 139.663 118.107H207.321C207.654 118.107 207.983 118.165 208.29 118.28C208.597 118.394 208.877 118.561 209.112 118.773C209.347 118.984 209.534 119.235 209.661 119.511C209.788 119.788 209.854 120.084 209.854 120.383C209.854 120.682 209.788 120.978 209.661 121.255C209.534 121.531 209.347 121.782 209.112 121.994C208.877 122.205 208.597 122.373 208.29 122.487C207.983 122.601 207.654 122.659 207.321 122.659V122.659Z" fill="#E6E6E6"/>
<path d="M122.78 125.077C128.018 125.077 132.265 121.256 132.265 116.543C132.265 111.829 128.018 108.008 122.78 108.008C117.542 108.008 113.295 111.829 113.295 116.543C113.295 121.256 117.542 125.077 122.78 125.077Z" fill="#E6E6E6"/>
<path d="M207.318 131.905H198.465C198.133 131.905 197.803 131.847 197.496 131.733C197.189 131.619 196.91 131.451 196.674 131.24C196.439 131.028 196.253 130.777 196.125 130.501C195.998 130.224 195.932 129.928 195.932 129.629C195.932 129.33 195.998 129.034 196.125 128.757C196.253 128.481 196.439 128.23 196.674 128.019C196.91 127.807 197.189 127.64 197.496 127.526C197.803 127.411 198.133 127.353 198.465 127.353H207.318C207.988 127.354 208.63 127.594 209.104 128.021C209.577 128.448 209.843 129.026 209.843 129.629C209.843 130.232 209.577 130.811 209.104 131.237C208.63 131.664 207.988 131.904 207.318 131.905V131.905Z" fill="white"/>
<path d="M207.318 131.905H198.465C198.133 131.905 197.803 131.847 197.496 131.733C197.189 131.619 196.91 131.451 196.674 131.24C196.439 131.028 196.253 130.777 196.125 130.501C195.998 130.224 195.932 129.928 195.932 129.629C195.932 129.33 195.998 129.034 196.125 128.757C196.253 128.481 196.439 128.23 196.674 128.019C196.91 127.807 197.189 127.64 197.496 127.526C197.803 127.411 198.133 127.353 198.465 127.353H207.318C207.988 127.354 208.63 127.594 209.104 128.021C209.577 128.448 209.843 129.026 209.843 129.629C209.843 130.232 209.577 130.811 209.104 131.237C208.63 131.664 207.988 131.904 207.318 131.905V131.905Z" fill="#CCCCCC"/>
<path d="M211.842 270.029H111.304C109.879 270.028 108.512 269.518 107.505 268.611C106.497 267.704 105.93 266.475 105.929 265.193V236.175C105.93 234.893 106.497 233.663 107.505 232.757C108.512 231.85 109.879 231.34 111.304 231.338H211.842C213.267 231.34 214.633 231.85 215.641 232.757C216.648 233.663 217.215 234.893 217.217 236.175V265.193C217.215 266.475 216.648 267.704 215.641 268.611C214.633 269.518 213.267 270.028 211.842 270.029V270.029ZM111.304 231.907C110.046 231.909 108.841 232.359 107.952 233.159C107.063 233.959 106.563 235.043 106.561 236.175V265.193C106.563 266.324 107.063 267.409 107.952 268.209C108.841 269.009 110.046 269.459 111.304 269.46H211.842C213.099 269.459 214.305 269.009 215.194 268.209C216.083 267.409 216.583 266.324 216.584 265.193V236.175C216.583 235.043 216.083 233.959 215.194 233.159C214.305 232.359 213.099 231.909 211.842 231.907H111.304Z" fill="#CCCCCC"/>
<path d="M174.757 249.119H139.663C138.992 249.119 138.349 248.879 137.875 248.453C137.4 248.026 137.134 247.447 137.134 246.843C137.134 246.24 137.4 245.661 137.875 245.234C138.349 244.807 138.992 244.567 139.663 244.567H174.757C175.427 244.568 176.07 244.808 176.543 245.235C177.017 245.662 177.283 246.24 177.283 246.843C177.283 247.446 177.017 248.025 176.543 248.451C176.07 248.878 175.427 249.118 174.757 249.119V249.119Z" fill="#E6E6E6"/>
<path d="M207.321 256.8H139.663C138.993 256.8 138.351 256.559 137.877 256.133C137.403 255.706 137.137 255.128 137.137 254.524C137.137 253.921 137.403 253.343 137.877 252.916C138.351 252.489 138.993 252.249 139.663 252.249H207.321C207.992 252.249 208.635 252.488 209.11 252.915C209.584 253.342 209.851 253.921 209.851 254.524C209.851 255.128 209.584 255.707 209.11 256.134C208.635 256.561 207.992 256.8 207.321 256.8Z" fill="#E6E6E6"/>
<path d="M122.78 259.219C128.018 259.219 132.265 255.397 132.265 250.684C132.265 245.97 128.018 242.149 122.78 242.149C117.542 242.149 113.295 245.97 113.295 250.684C113.295 255.397 117.542 259.219 122.78 259.219Z" fill="#E6E6E6"/>
<path d="M207.318 266.046H198.465C197.794 266.046 197.151 265.807 196.677 265.38C196.202 264.953 195.936 264.374 195.936 263.77C195.936 263.167 196.202 262.588 196.677 262.161C197.151 261.734 197.794 261.495 198.465 261.495H207.318C207.988 261.495 208.63 261.735 209.104 262.162C209.577 262.589 209.843 263.167 209.843 263.77C209.843 264.374 209.577 264.952 209.104 265.379C208.63 265.805 207.988 266.046 207.318 266.046V266.046Z" fill="white"/>
<path d="M207.318 266.046H198.465C197.794 266.046 197.151 265.807 196.677 265.38C196.202 264.953 195.936 264.374 195.936 263.77C195.936 263.167 196.202 262.588 196.677 262.161C197.151 261.734 197.794 261.495 198.465 261.495H207.318C207.988 261.495 208.63 261.735 209.104 262.162C209.577 262.589 209.843 263.167 209.843 263.77C209.843 264.374 209.577 264.952 209.104 265.379C208.63 265.805 207.988 266.046 207.318 266.046V266.046Z" fill="#CCCCCC"/>
<path d="M211.842 323.933H111.304C109.879 323.931 108.512 323.421 107.505 322.515C106.497 321.608 105.93 320.379 105.929 319.096V290.078C105.93 288.796 106.497 287.567 107.505 286.66C108.512 285.753 109.879 285.243 111.304 285.242H211.842C213.267 285.243 214.633 285.753 215.641 286.66C216.648 287.567 217.215 288.796 217.217 290.078V319.096C217.215 320.379 216.648 321.608 215.641 322.515C214.633 323.421 213.267 323.931 211.842 323.933V323.933ZM111.304 285.811C110.046 285.812 108.841 286.262 107.952 287.062C107.063 287.862 106.563 288.947 106.561 290.078V319.096C106.563 320.228 107.063 321.312 107.952 322.112C108.841 322.912 110.046 323.362 111.304 323.364H211.842C213.099 323.362 214.305 322.912 215.194 322.112C216.083 321.312 216.583 320.228 216.584 319.096V290.078C216.583 288.947 216.083 287.862 215.194 287.062C214.305 286.262 213.099 285.812 211.842 285.811H111.304Z" fill="#CCCCCC"/>
<path d="M174.757 303.023H139.663C138.992 303.023 138.349 302.783 137.875 302.356C137.4 301.929 137.134 301.35 137.134 300.747C137.134 300.143 137.4 299.564 137.875 299.137C138.349 298.71 138.992 298.471 139.663 298.471H174.757C175.427 298.471 176.07 298.712 176.543 299.138C177.017 299.565 177.283 300.144 177.283 300.747C177.283 301.35 177.017 301.928 176.543 302.355C176.07 302.782 175.427 303.022 174.757 303.023V303.023Z" fill="#E6E6E6"/>
<path d="M207.321 310.704H139.663C138.993 310.703 138.351 310.463 137.877 310.036C137.403 309.609 137.137 309.031 137.137 308.428C137.137 307.825 137.403 307.246 137.877 306.82C138.351 306.393 138.993 306.153 139.663 306.152H207.321C207.992 306.152 208.635 306.392 209.11 306.819C209.584 307.245 209.851 307.824 209.851 308.428C209.851 309.031 209.584 309.61 209.11 310.037C208.635 310.464 207.992 310.704 207.321 310.704Z" fill="#E6E6E6"/>
<path d="M122.78 313.122C128.018 313.122 132.265 309.301 132.265 304.587C132.265 299.874 128.018 296.052 122.78 296.052C117.542 296.052 113.295 299.874 113.295 304.587C113.295 309.301 117.542 313.122 122.78 313.122Z" fill="#E6E6E6"/>
<path d="M207.318 319.95H198.465C197.794 319.95 197.151 319.71 196.677 319.283C196.202 318.856 195.936 318.277 195.936 317.674C195.936 317.07 196.202 316.491 196.677 316.065C197.151 315.638 197.794 315.398 198.465 315.398H207.318C207.988 315.399 208.63 315.639 209.104 316.066C209.577 316.492 209.843 317.071 209.843 317.674C209.843 318.277 209.577 318.855 209.104 319.282C208.63 319.709 207.988 319.949 207.318 319.95V319.95Z" fill="white"/>
<path d="M207.318 319.95H198.465C197.794 319.95 197.151 319.71 196.677 319.283C196.202 318.856 195.936 318.277 195.936 317.674C195.936 317.07 196.202 316.491 196.677 316.065C197.151 315.638 197.794 315.398 198.465 315.398H207.318C207.988 315.399 208.63 315.639 209.104 316.066C209.577 316.492 209.843 317.071 209.843 317.674C209.843 318.277 209.577 318.855 209.104 319.282C208.63 319.709 207.988 319.949 207.318 319.95V319.95Z" fill="#CCCCCC"/>
<path d="M149.213 373.11H154.82L157.487 353.652L149.213 353.652L149.213 373.11Z" fill="#FFB8B8"/>
<path d="M147.783 371.463L158.824 371.463H158.824C159.748 371.463 160.663 371.626 161.517 371.944C162.37 372.263 163.146 372.729 163.799 373.317C164.453 373.905 164.971 374.603 165.325 375.371C165.678 376.139 165.86 376.962 165.86 377.794V377.999L147.784 378L147.783 371.463Z" fill="#2F2E41"/>
<path d="M126.807 373.11H132.413L135.08 353.652L126.806 353.652L126.807 373.11Z" fill="#FFB8B8"/>
<path d="M125.377 371.463L136.417 371.463H136.418C137.342 371.463 138.257 371.626 139.11 371.944C139.964 372.263 140.739 372.729 141.393 373.317C142.046 373.905 142.564 374.603 142.918 375.371C143.272 376.139 143.454 376.962 143.454 377.794V377.999L125.377 378L125.377 371.463Z" fill="#2F2E41"/>
<path d="M150.332 238.4C156.535 238.4 161.564 233.876 161.564 228.294C161.564 222.713 156.535 218.188 150.332 218.188C144.13 218.188 139.101 222.713 139.101 228.294C139.101 233.876 144.13 238.4 150.332 238.4Z" fill="#FFB8B8"/>
<path d="M157.885 368.91H147.482C147.209 368.91 146.94 368.862 146.688 368.767C146.437 368.673 146.209 368.534 146.018 368.36C145.826 368.186 145.675 367.979 145.573 367.752C145.471 367.524 145.421 367.281 145.424 367.036L146.029 322.584C146.031 322.426 145.966 322.273 145.847 322.157C145.727 322.041 145.564 321.971 145.388 321.96C145.213 321.95 145.04 322 144.905 322.101C144.77 322.201 144.683 322.345 144.662 322.502L138.607 367.283C138.546 367.731 138.304 368.145 137.928 368.444C137.552 368.744 137.067 368.91 136.564 368.91H126.061C125.777 368.91 125.497 368.858 125.237 368.755C124.977 368.653 124.743 368.503 124.55 368.316C124.358 368.129 124.21 367.907 124.117 367.666C124.024 367.425 123.987 367.169 124.01 366.914L130.945 287.057L131.134 287.039L164.345 283.811L159.94 367.147C159.916 367.622 159.689 368.071 159.306 368.399C158.923 368.728 158.414 368.911 157.885 368.91V368.91Z" fill="#2F2E41"/>
<path d="M131.35 291.959C130.816 291.958 130.304 291.771 129.921 291.436C129.539 291.101 129.315 290.646 129.299 290.166C129.118 285.117 128.807 267.645 132.419 254.818C133.404 251.314 135.617 248.188 138.729 245.903C141.841 243.618 145.688 242.295 149.7 242.129V242.129C153.65 241.935 157.567 242.865 160.896 244.787C164.225 246.709 166.797 249.525 168.247 252.837C174.318 266.705 180.053 283.799 172.903 286.48C163.531 289.993 138.825 291.56 131.476 291.956C131.433 291.958 131.391 291.959 131.35 291.959Z" fill="#6C63FF"/>
<path d="M174.275 218.08C174.451 218.243 174.642 218.393 174.845 218.529L173.666 238.908L168.762 241.167L171.583 248.273L180.697 245.032C181.433 244.771 182.055 244.301 182.47 243.694C182.884 243.087 183.068 242.376 182.995 241.666L180.608 218.55C181.389 218.025 181.974 217.299 182.286 216.468C182.597 215.637 182.62 214.74 182.351 213.897C182.082 213.054 181.535 212.304 180.781 211.748C180.027 211.192 179.103 210.855 178.132 210.783C177.16 210.711 176.188 210.907 175.343 211.344C174.498 211.782 173.821 212.44 173.402 213.233C172.984 214.025 172.843 214.913 172.999 215.778C173.155 216.644 173.6 217.447 174.275 218.08H174.275Z" fill="#FFB8B8"/>
<path d="M173.759 239.667L177.208 248.488C177.307 248.739 177.343 249.007 177.317 249.271C177.29 249.536 177.2 249.793 177.053 250.024C176.905 250.255 176.705 250.454 176.464 250.609C176.224 250.764 175.949 250.87 175.659 250.921L165.486 252.693C164.056 253.138 162.489 253.055 161.127 252.461C159.766 251.867 158.721 250.812 158.223 249.526C157.725 248.24 157.814 246.829 158.47 245.603C159.127 244.376 160.297 243.433 161.724 242.982L170.858 238.644C171.119 238.52 171.407 238.448 171.703 238.433C171.998 238.418 172.293 238.46 172.568 238.558C172.844 238.655 173.093 238.804 173.298 238.995C173.503 239.187 173.661 239.416 173.759 239.667V239.667Z" fill="#6C63FF"/>
<path d="M125.627 218.08C125.45 218.243 125.26 218.393 125.057 218.529L126.236 238.908L131.14 241.167L128.318 248.273L119.205 245.032C118.468 244.771 117.846 244.301 117.432 243.694C117.017 243.087 116.833 242.376 116.906 241.666L119.294 218.55C118.513 218.025 117.927 217.299 117.616 216.468C117.304 215.637 117.281 214.74 117.55 213.897C117.819 213.054 118.367 212.304 119.12 211.748C119.874 211.192 120.798 210.855 121.77 210.783C122.741 210.711 123.714 210.907 124.559 211.344C125.404 211.782 126.08 212.44 126.499 213.233C126.918 214.025 127.058 214.913 126.903 215.778C126.747 216.644 126.302 217.447 125.627 218.08V218.08Z" fill="#FFB8B8"/>
<path d="M127.333 238.557C127.608 238.46 127.904 238.418 128.199 238.433C128.494 238.447 128.782 238.519 129.044 238.644L138.177 242.982C139.605 243.433 140.775 244.376 141.431 245.603C142.087 246.829 142.176 248.24 141.678 249.526C141.18 250.812 140.136 251.867 138.774 252.461C137.413 253.055 135.845 253.138 134.415 252.693L124.243 250.921C123.952 250.87 123.678 250.764 123.437 250.609C123.196 250.454 122.996 250.255 122.849 250.024C122.702 249.793 122.612 249.536 122.585 249.272C122.558 249.007 122.595 248.739 122.693 248.488L126.143 239.667C126.241 239.416 126.398 239.187 126.603 238.995C126.809 238.804 127.058 238.654 127.333 238.557Z" fill="#6C63FF"/>
<path d="M154.694 230.017C154.635 228.728 154.995 227.451 155.729 226.343C156.463 225.234 157.54 224.342 158.828 223.776C162.242 222.19 164.387 218.807 163.447 215.718C162.244 211.764 156.264 209.2 151.419 210.56C150.107 210.979 148.842 211.508 147.641 212.14L144.475 213.667C143.123 214.276 141.819 214.969 140.573 215.74C138.706 216.978 137.243 218.644 136.337 220.564C135.43 222.484 135.113 224.588 135.419 226.657C136.043 230.676 138.968 234.362 142.972 236.886C144.504 237.916 146.273 238.624 148.148 238.956C150.068 239.241 152.204 238.918 153.608 237.843C155.801 236.165 155.575 233.354 154.865 231.006C154.771 230.682 154.714 230.351 154.694 230.017V230.017Z" fill="#2F2E41"/>
</g>
<defs>
<clipPath id="clip0_31_342">
<rect width="200" height="320" fill="white" transform="translate(57 58)"/>
</clipPath>
</defs>
</svg>
